<svg width="26" height="28" viewBox="0 0 26 28" fill="none" xmlns="http://www.w3.org/2000/svg">
<path d="M5.75721 3.18162L7.2524 2.31838L8.0024 3.61741L8.75 3.18579C9.40234 2.80916 10.0918 2.52614 10.7999 2.33643L10.4118 0.887522C12.1066 0.4335 13.8934 0.4335 15.5882 0.887523L15.2001 2.33643C15.9082 2.52614 16.5977 2.80916 17.25 3.18579L17.9976 3.61741L18.7476 2.31838L20.2428 3.18162L19.4928 4.48066L20.2404 4.91229C20.8927 5.28892 21.4825 5.74446 22.0009 6.26289L23.0616 5.20229C24.3022 6.44303 25.1956 7.99047 25.6499 9.68524L24.201 10.0735C24.3908 10.7817 24.4904 11.5202 24.4904 12.2735V13.1368H25.9904V14.8632H24.4904V15.7265C24.4904 16.4798 24.3908 17.2183 24.201 17.9265L25.6499 18.3148C25.1956 20.0095 24.3022 21.557 23.0616 22.7977L22.0009 21.7371C21.4825 22.2555 20.8927 22.7111 20.2404 23.0877L19.4928 23.5193L20.2428 24.8184L18.7476 25.6816L17.9976 24.3826L17.25 24.8142C16.5977 25.1908 15.9082 25.4739 15.2001 25.6636L15.5882 27.1125C13.8934 27.5665 12.1066 27.5665 10.4118 27.1125L10.7999 25.6636C10.0918 25.4739 9.40234 25.1908 8.75 24.8142L8.0024 24.3826L7.2524 25.6816L5.75721 24.8184L6.50721 23.5193L5.75962 23.0877C5.10728 22.7111 4.51747 22.2555 3.9991 21.7371L2.93838 22.7977C1.69777 21.557 0.80436 20.0095 0.350145 18.3148L1.79901 17.9265C1.60922 17.2183 1.50962 16.4798 1.50962 15.7265V14.8632H0.00961876V13.1368H1.50962V12.2735C1.50962 11.5202 1.60922 10.7817 1.79901 10.0735L0.350145 9.68524C0.804361 7.99047 1.69777 6.44303 2.93838 5.20229L3.9991 6.26289C4.51747 5.74446 5.10728 5.28892 5.75962 4.91229L6.50721 4.48066L5.75721 3.18162Z" stroke="#F2AA4C" stroke-width="3" stroke-dasharray="4 4"/>
</svg>
