<svg width="46" height="43" viewBox="0 0 46 43" fill="none" xmlns="http://www.w3.org/2000/svg">
<path d="M20.8752 17.1873L20.876 17.1876L20.8764 17.1878L23.3561 18.267L23.6593 15.5798L23.6593 15.5793L23.6594 15.5784L23.6596 15.5772L23.6597 15.5759L23.663 15.549C23.6663 15.5227 23.6718 15.4801 23.6799 15.4223C23.6959 15.3065 23.722 15.1304 23.7602 14.9034C23.8369 14.4489 23.962 13.7947 24.153 13.0176C24.5382 11.4501 25.1761 9.44589 26.1851 7.58178C27.199 5.70873 28.5173 4.1061 30.2027 3.15321C31.8283 2.2341 33.9872 1.80859 36.967 2.61014C39.0068 3.15881 40.4424 4.10025 41.4663 5.27744C42.5022 6.46861 43.2031 8.00217 43.5996 9.8496C44.4044 13.6005 43.8933 18.3557 42.7269 23.2021C41.5713 28.0034 39.8271 32.6785 38.3601 36.1719C37.6287 37.9137 36.9708 39.3508 36.4973 40.3495C36.4235 40.505 36.3542 40.6499 36.2899 40.7836C36.1371 40.7793 35.9714 40.7741 35.7934 40.7679C34.6802 40.729 33.0905 40.6502 31.1986 40.4907C27.4026 40.1708 22.4437 39.5302 17.69 38.2573C12.8893 36.9718 8.53765 35.1028 5.744 32.4732C4.37188 31.1816 3.40931 29.7385 2.91753 28.1112C2.42769 26.4904 2.36642 24.5605 2.98918 22.2273C3.78391 19.2497 5.23107 17.5943 6.8399 16.6464C8.50797 15.6636 10.5555 15.3229 12.6851 15.3806C14.8045 15.4381 16.8596 15.8867 18.41 16.3359C19.1787 16.5586 19.808 16.7769 20.2401 16.9375C20.4558 17.0177 20.6214 17.0831 20.7297 17.127C20.7838 17.1489 20.8235 17.1654 20.8479 17.1757L20.8728 17.1862L20.874 17.1867L20.8752 17.1873Z" stroke="#F2AA4C" stroke-width="4"/>
</svg>
