<svg width="128" height="115" viewBox="0 0 128 115" fill="none" xmlns="http://www.w3.org/2000/svg">
<path d="M33.7604 1.15691L33.8105 1.53696L33.8128 1.53666L33.8207 1.53563L33.8532 1.53148C33.8821 1.52783 33.9254 1.52244 33.9823 1.51557C34.0961 1.50182 34.2645 1.48216 34.4813 1.45865C34.9149 1.41161 35.5422 1.34919 36.3147 1.28793C37.8601 1.16536 39.9839 1.04763 42.2987 1.06657C44.615 1.08551 47.1137 1.24124 49.412 1.66254C51.7165 2.08496 53.7857 2.76855 55.2686 3.82131C58.2221 5.91799 59.0032 9.5833 59.8087 13.4562L59.8245 13.5324C60.6094 17.3067 61.4343 21.2733 64.6555 23.5601C67.8767 25.8468 71.8934 25.3174 75.7154 24.8136L75.7926 24.8034C79.7144 24.2866 83.4323 23.8152 86.3857 25.9119C89.3391 28.0086 90.1202 31.6739 90.9257 35.5467L90.9416 35.6229C91.7265 39.3973 92.5514 43.3638 95.7726 45.6506C98.9938 47.9374 103.01 47.408 106.832 46.9042L106.91 46.894C110.831 46.3772 114.549 45.9057 117.503 48.0024C118.986 49.0552 120.313 50.7832 121.472 52.8194C122.628 54.8502 123.599 57.1578 124.381 59.3382C125.162 61.5173 125.751 63.561 126.145 65.0604C126.342 65.8099 126.49 66.4227 126.589 66.8475C126.638 67.06 126.675 67.2254 126.7 67.3374C126.712 67.3934 126.721 67.436 126.727 67.4645L126.734 67.4965L126.736 67.5062L127.112 67.4286L127.452 67.3577C127.487 67.3504 127.487 67.3502 127.487 67.3502L127.486 67.3473L127.484 67.3384L127.477 67.3044C127.471 67.2746 127.461 67.2306 127.449 67.1731C127.423 67.0583 127.386 66.8898 127.336 66.6742C127.236 66.243 127.086 65.623 126.887 64.8656C126.489 63.3513 125.893 61.2852 125.103 59.0794C124.312 56.875 123.324 54.5229 122.139 52.4402C120.956 50.363 119.562 48.524 117.947 47.3773C114.725 45.0905 110.709 45.6199 106.887 46.1237L106.809 46.1339C102.888 46.6507 99.1698 47.1222 96.2164 45.0255C93.2629 42.9288 92.4819 39.2635 91.6763 35.3906L91.6605 35.3144C90.8756 31.5401 90.0507 27.5735 86.8295 25.2867C83.6083 22.9999 79.5916 23.5294 75.7696 24.0332L75.6924 24.0433C71.7706 24.5602 68.0527 25.0316 65.0993 22.9349C62.1459 20.8382 61.3648 17.1729 60.5593 13.3L60.5434 13.2238C59.7585 9.44949 58.9336 5.48294 55.7124 3.19615C54.0972 2.04947 51.9011 1.33937 49.5503 0.908429C47.1932 0.476362 44.6467 0.319071 42.305 0.29992C39.9618 0.280757 37.8148 0.399868 36.254 0.523656C35.4734 0.585572 34.8387 0.648712 34.3986 0.696444C34.1786 0.720312 34.0071 0.740331 33.8904 0.754425C33.832 0.761473 33.7873 0.767039 33.757 0.770864L33.7226 0.775266L33.7112 0.776737C33.7112 0.776737 33.7103 0.776863 33.7604 1.15691Z" fill="#F2AA4C"/>
<path d="M22.6512 16.8054L22.7013 17.1855L22.7036 17.1852L22.7116 17.1842L22.744 17.18C22.7729 17.1764 22.8162 17.171 22.8731 17.1641C22.9869 17.1504 23.1553 17.1307 23.3721 17.1072C23.8057 17.0601 24.433 16.9977 25.2055 16.9365C26.7509 16.8139 28.8747 16.6962 31.1895 16.7151C33.5058 16.734 36.0046 16.8898 38.3028 17.3111C40.6073 17.7335 42.6765 18.4171 44.1595 19.4698C47.1129 21.5665 47.894 25.2318 48.6995 29.1047L48.7153 29.1809C49.5002 32.9552 50.3251 36.9218 53.5463 39.2086C56.7675 41.4954 60.7842 40.9659 64.6062 40.4621L64.6834 40.452C68.6052 39.9351 72.3231 39.4637 75.2765 41.5604C78.2299 43.6571 79.011 47.3224 79.8165 51.1952L79.8324 51.2715C80.6173 55.0458 81.4422 59.0124 84.6634 61.2991C87.8846 63.5859 91.9012 63.0565 95.7233 62.5527L95.8005 62.5425C99.7223 62.0257 103.44 61.5543 106.394 63.651C107.876 64.7037 109.204 66.4318 110.363 68.4679C111.519 70.4987 112.49 72.8063 113.272 74.9867C114.053 77.1658 114.642 79.2096 115.036 80.709C115.233 81.4584 115.381 82.0712 115.48 82.4961C115.529 82.7085 115.566 82.8739 115.591 82.9859C115.603 83.0419 115.612 83.0846 115.618 83.113L115.625 83.145L115.627 83.1547L116.002 83.0771C116.378 82.9991 116.378 82.9988 116.378 82.9988L116.377 82.9958L116.375 82.987L116.368 82.9529C116.362 82.9231 116.352 82.8791 116.339 82.8217C116.314 82.7068 116.277 82.5384 116.227 82.3227C116.126 81.8916 115.977 81.2715 115.778 80.5141C115.38 78.9998 114.784 76.9337 113.993 74.728C113.203 72.5235 112.215 70.1714 111.029 68.0887C109.847 66.0115 108.453 64.1725 106.837 63.0258C103.616 60.739 99.5995 61.2685 95.7774 61.7723L95.7003 61.7824C91.7784 62.2992 88.0606 62.7707 85.1072 60.674C82.1538 58.5773 81.3727 54.912 80.5671 51.0391L80.5513 50.963C79.7664 47.1886 78.9415 43.222 75.7203 40.9352C72.4991 38.6485 68.4824 39.1779 64.6604 39.6817L64.5832 39.6919C60.6614 40.2087 56.9436 40.6801 53.9901 38.5834C51.0367 36.4867 50.2556 32.8214 49.4501 28.9486L49.4343 28.8724C48.6493 25.098 47.8245 21.1315 44.6033 18.8447C42.988 17.698 40.792 16.9879 38.4411 16.557C36.084 16.1249 33.5375 15.9676 31.1958 15.9484C28.8526 15.9293 26.7057 16.0484 25.1449 16.1722C24.3642 16.2341 23.7295 16.2972 23.2894 16.345C23.0694 16.3688 22.8979 16.3889 22.7812 16.403C22.7228 16.41 22.6781 16.4156 22.6479 16.4194L22.6134 16.4238L22.6044 16.425L22.6021 16.4253C22.6021 16.4253 22.6011 16.4254 22.6512 16.8054Z" fill="#F2AA4C"/>
<path d="M11.5922 32.8339L11.5421 32.4539C11.492 32.0738 11.4923 32.0738 11.4923 32.0738L11.4953 32.0734L11.5043 32.0722L11.5388 32.0678C11.569 32.064 11.6137 32.0584 11.6721 32.0514C11.7888 32.0373 11.9603 32.0173 12.1803 31.9934C12.6204 31.9457 13.2551 31.8825 14.0358 31.8206C15.5966 31.6968 17.7435 31.5777 20.0867 31.5969C22.4284 31.616 24.9749 31.7733 27.332 32.2054C29.6829 32.6363 31.8789 33.3464 33.4942 34.4931C36.7154 36.7799 37.5403 40.7464 38.3252 44.5208L38.341 44.597C39.1465 48.4698 39.9276 52.1352 42.881 54.2318C45.8345 56.3285 49.5523 55.8571 53.4741 55.3403L53.5513 55.3301C57.3733 54.8263 61.39 54.2969 64.6112 56.5837C67.8324 58.8704 68.6573 62.837 69.4422 66.6114L69.458 66.6875C70.2636 70.5604 71.0447 74.2257 73.9981 76.3224C76.9515 78.4191 80.6693 77.9477 84.5912 77.4308L84.6683 77.4207C88.4904 76.9169 92.5071 76.3874 95.7283 78.6742C97.3435 79.8209 98.7381 81.6599 99.9203 83.7372C101.106 85.8198 102.094 88.172 102.884 90.3764C103.675 92.5821 104.271 94.6483 104.669 96.1625C104.868 96.92 105.017 97.54 105.117 97.9712C105.167 98.1868 105.205 98.3552 105.23 98.4701C105.243 98.5275 105.252 98.5715 105.259 98.6014L105.266 98.6354L105.268 98.6465C105.268 98.6465 105.269 98.6475 104.893 98.7255L104.518 98.8036L104.517 98.8013L104.516 98.7935L104.509 98.7614L104.505 98.7406L104.496 98.6993C104.491 98.6802 104.487 98.6585 104.481 98.6343C104.457 98.5223 104.42 98.3569 104.371 98.1445C104.272 97.7196 104.124 97.1068 103.927 96.3574C103.533 94.858 102.944 92.8142 102.163 90.6351C101.381 88.4547 100.41 86.1471 99.254 84.1164C98.0952 82.0802 96.7674 80.3521 95.2845 79.2994C92.331 77.2027 88.6132 77.6741 84.6914 78.1909L84.6142 78.2011C80.7921 78.7049 76.7755 79.2343 73.5543 76.9476C70.3331 74.6608 69.5082 70.6942 68.7233 66.9199L68.7074 66.8437C67.9019 62.9708 67.1208 59.3055 64.1674 57.2088C61.214 55.1121 57.4961 55.5836 53.5743 56.1004L53.4972 56.1105C49.6751 56.6143 45.6584 57.1438 42.4372 54.857C39.216 52.5702 38.3912 48.6037 37.6062 44.8293L37.5904 44.7531C36.7849 40.8802 36.0038 37.2149 33.0504 35.1182C31.5674 34.0655 29.4982 33.3819 27.1937 32.9595C24.8955 32.5382 22.3967 32.3825 20.0804 32.3635C17.7656 32.3446 15.6418 32.4623 14.0964 32.5849C13.3239 32.6461 12.6966 32.7086 12.263 32.7556C12.0462 32.7791 11.8778 32.7988 11.764 32.8125C11.7071 32.8194 11.6638 32.8248 11.6349 32.8284L11.6025 32.8326L11.5922 32.8339Z" fill="#F2AA4C"/>
<path d="M0.433269 48.1019L0.483407 48.4819L0.493639 48.4806L0.526089 48.4765C0.554979 48.4728 0.598261 48.4674 0.655183 48.4605C0.769018 48.4468 0.937373 48.4271 1.15417 48.4036C1.58782 48.3566 2.21511 48.2942 2.98756 48.2329C4.533 48.1103 6.65676 47.9926 8.9716 48.0115C11.2879 48.0305 13.7866 48.1862 16.0849 48.6075C18.3893 49.0299 20.4586 49.7135 21.9415 50.7663C24.895 52.863 25.6761 56.5283 26.4816 60.4011L26.4974 60.4773C27.2823 64.2517 28.1072 68.2182 31.3284 70.505C34.5496 72.7918 38.5663 72.2624 42.3883 71.7586L42.4655 71.7484C46.3873 71.2316 50.1052 70.7602 53.0586 72.8568C56.012 74.9535 56.7931 78.6188 57.5986 82.4917L57.6145 82.5679C58.3994 86.3423 59.2243 90.3088 62.4455 92.5956C65.6667 94.8824 69.6833 94.3529 73.5053 93.8491L73.5825 93.839C77.5044 93.3221 81.2222 92.8507 84.1756 94.9474C85.6586 96.0002 86.9863 97.7282 88.1451 99.7644C89.3008 101.795 90.272 104.103 91.0538 106.283C91.8351 108.462 92.4243 110.506 92.8183 112.005C93.0152 112.755 93.1632 113.368 93.2618 113.793C93.3111 114.005 93.3481 114.17 93.3726 114.282C93.3849 114.338 93.3941 114.381 93.4002 114.409L93.407 114.441L93.4086 114.449L93.409 114.451L93.7844 114.374C94.1597 114.296 94.1597 114.295 94.1597 114.295L94.159 114.292L94.1572 114.283L94.1499 114.249C94.1436 114.22 94.1341 114.176 94.1215 114.118C94.0963 114.003 94.0587 113.835 94.0086 113.619C93.9086 113.188 93.7588 112.568 93.5598 111.811C93.1619 110.296 92.5663 108.23 91.7754 106.024C90.985 103.82 89.9967 101.468 88.8115 99.3852C87.6293 97.308 86.2347 95.4689 84.6194 94.3223C81.3982 92.0355 77.3816 92.5649 73.5595 93.0687L73.4824 93.0789C69.5605 93.5957 65.8427 94.0671 62.8893 91.9704C59.9358 89.8737 59.1548 86.2084 58.3492 82.3356L58.3334 82.2594C57.5485 78.485 56.7236 74.5185 53.5024 72.2317C50.2812 69.9449 46.2645 70.4743 42.4425 70.9781L42.3653 70.9883C38.4435 71.5051 34.7256 71.9766 31.7722 69.8799C28.8188 67.7832 28.0377 64.1179 27.2322 60.245L27.2163 60.1688C26.4314 56.3945 25.6065 52.4279 22.3853 50.1411C20.7701 48.9944 18.574 48.2843 16.2232 47.8534C13.8661 47.4213 11.3196 47.264 8.97787 47.2449C6.63472 47.2257 4.48773 47.3448 2.92695 47.4686C2.14627 47.5305 1.51158 47.5937 1.0715 47.6414C0.851457 47.6653 0.680019 47.6853 0.563286 47.6994C0.504916 47.7064 0.460215 47.712 0.429944 47.7158L0.395457 47.7202L0.386508 47.7214L0.384138 47.7217C0.384138 47.7217 0.383182 47.7218 0.433269 48.1019Z" fill="#F2AA4C"/>
</svg>
