<svg xmlns="http://www.w3.org/2000/svg" version="1.1" xmlns:xlink="http://www.w3.org/1999/xlink" xmlns:svgjs="http://svgjs.dev/svgjs" width="1500" height="280" viewBox="0 0 1500 280"><g transform="matrix(1,0,0,1,-0.9090909090909918,-0.9150849394771683)"><svg viewBox="0 0 396 74" data-background-color="#ffffff" preserveAspectRatio="xMidYMid meet" height="280" width="1500" xmlns="http://www.w3.org/2000/svg" xmlns:xlink="http://www.w3.org/1999/xlink"><g id="tight-bounds" transform="matrix(1,0,0,1,0.2400000000000091,0.24184387686182163)"><svg viewBox="0 0 395.52 68.05729871177483" height="68.05729871177483" width="395.52"><g><svg viewBox="0 0 539.2457655500116 92.78825380536216" height="68.05729871177483" width="395.52"><g><rect width="6.054804982377342" height="67.47626271663455" x="411.3702748229773" y="12.655995544363805" fill="#000000" opacity="1" stroke-width="0" stroke="transparent" fill-opacity="1" class="rect-yte-0" data-fill-palette-color="primary" rx="1%" id="yte-0" data-palette-color="#000000"></rect></g><g transform="matrix(1,0,0,1,0,12.823846944156422)"><svg viewBox="0 0 395.52 67.14055991704932" height="67.14055991704932" width="395.52"><g id="textblocktransform"><svg viewBox="0 0 395.52 67.14055991704932" height="67.14055991704932" width="395.52" id="textblock"><g><svg viewBox="0 0 395.52 67.14055991704932" height="67.14055991704932" width="395.52"><g transform="matrix(1,0,0,1,0,0)"><svg width="395.52" viewBox="1.88 -42.94 329.61 55.949999999999996" height="67.14055991704932" data-palette-color="#000000"><path d="M32.79-10.74L32.79-10.74Q32.79-8.47 32.21-6.74 31.64-5 30.6-3.74 29.57-2.47 28.15-1.61 26.73-0.76 25.06-0.24 23.39 0.27 21.52 0.49 19.65 0.71 17.72 0.71L17.72 0.71Q15.19 0.71 13.04 0.33 10.89-0.05 9-0.87 7.1-1.68 5.36-2.98 3.61-4.27 1.88-6.13L1.88-6.13 6.86-11.18Q7.54-9.5 8.74-8.07 9.94-6.64 11.36-5.62 12.79-4.59 14.33-4 15.87-3.42 17.24-3.42L17.24-3.42Q18.85-3.42 20.26-3.65 21.68-3.88 22.73-4.42 23.78-4.96 24.38-5.85 24.98-6.74 24.98-8.08L24.98-8.08Q24.98-9.11 24.51-9.84 24.05-10.57 23.3-11.1 22.56-11.62 21.61-11.99 20.65-12.35 19.67-12.61 18.68-12.87 17.72-13.07 16.77-13.28 16.04-13.5L16.04-13.5Q14.6-13.92 13.04-14.39 11.47-14.87 9.96-15.48 8.45-16.09 7.09-16.88 5.74-17.68 4.71-18.76 3.69-19.85 3.08-21.28 2.47-22.71 2.47-24.56L2.47-24.56Q2.47-26.78 3.02-28.5 3.56-30.22 4.57-31.49 5.57-32.76 6.93-33.63 8.3-34.5 9.94-35.02 11.57-35.55 13.42-35.78 15.26-36.01 17.19-36.01L17.19-36.01Q19.82-36.01 21.98-35.52 24.15-35.03 25.98-34.13 27.81-33.23 29.33-31.97 30.86-30.71 32.2-29.17L32.2-29.17 27.22-24.12Q26.64-25.88 25.6-27.29 24.56-28.71 23.29-29.72 22.02-30.74 20.63-31.29 19.24-31.84 17.94-31.84L17.94-31.84Q16.26-31.84 14.84-31.6 13.43-31.37 12.41-30.85 11.4-30.32 10.84-29.43 10.28-28.54 10.28-27.22L10.28-27.22Q10.28-26.17 10.69-25.44 11.11-24.71 11.8-24.19 12.5-23.68 13.38-23.35 14.26-23.02 15.2-22.78 16.14-22.53 17.05-22.35 17.97-22.17 18.73-21.95L18.73-21.95Q20.19-21.53 21.8-21.07 23.41-20.61 24.98-19.98 26.54-19.36 27.95-18.55 29.37-17.75 30.44-16.64 31.52-15.53 32.15-14.07 32.79-12.62 32.79-10.74ZM66.82-16.16L66.82-16.16Q66.82-13.31 66.12-10.21 65.43-7.1 64.18-4.13 62.94-1.15 61.2 1.48 59.47 4.1 57.39 6.01L57.39 6.01 54.29 4.32Q54.95 3.1 55.54 1.59 56.13 0.07 56.6-1.62 57.08-3.32 57.46-5.13 57.83-6.93 58.09-8.7 58.35-10.47 58.48-12.15 58.62-13.82 58.62-15.26L58.62-15.26Q58.62-16.21 58.54-17.3 58.47-18.38 58.24-19.47 58.01-20.56 57.61-21.56 57.22-22.56 56.58-23.32 55.93-24.07 55.01-24.54 54.1-25 52.85-25L52.85-25Q51.63-25 50.68-24.45 49.73-23.9 49-23.01 48.26-22.12 47.74-20.97 47.21-19.82 46.88-18.62 46.56-17.41 46.41-16.24 46.26-15.06 46.26-14.14L46.26-14.14 46.26 0 37.99 0 37.99-38.57 46.24-38.57 46.24-24.05Q47.82-26.37 50.13-27.62 52.44-28.88 55.25-28.88L55.25-28.88Q58.18-28.88 60.35-27.93 62.52-26.98 63.96-25.28 65.4-23.58 66.11-21.25 66.82-18.92 66.82-16.16ZM102.05-14.16L102.05-14.16Q102.05-11.96 101.46-10.03 100.87-8.11 99.84-6.47 98.8-4.83 97.33-3.53 95.87-2.22 94.12-1.32 92.38-0.42 90.39 0.07 88.4 0.56 86.3 0.56L86.3 0.56Q84.2 0.56 82.22 0.07 80.24-0.42 78.5-1.32 76.75-2.22 75.29-3.53 73.82-4.83 72.79-6.47 71.75-8.11 71.16-10.05 70.58-11.99 70.58-14.16L70.58-14.16Q70.58-16.33 71.16-18.27 71.75-20.21 72.79-21.85 73.82-23.49 75.29-24.79 76.75-26.1 78.5-27 80.24-27.91 82.22-28.39 84.2-28.88 86.3-28.88L86.3-28.88Q88.4-28.88 90.39-28.39 92.38-27.91 94.12-27 95.87-26.1 97.33-24.79 98.8-23.49 99.84-21.85 100.87-20.21 101.46-18.27 102.05-16.33 102.05-14.16ZM93.65-14.16L93.65-14.16Q93.65-15.33 93.51-16.64 93.38-17.94 93.06-19.2 92.74-20.46 92.19-21.62 91.65-22.78 90.84-23.65 90.03-24.51 88.91-25.04 87.79-25.56 86.3-25.56L86.3-25.56Q84.88-25.56 83.78-25.02 82.69-24.49 81.87-23.6 81.05-22.71 80.5-21.53 79.95-20.36 79.61-19.1 79.27-17.85 79.12-16.56 78.97-15.28 78.97-14.16L78.97-14.16Q78.97-13.04 79.12-11.76 79.27-10.47 79.61-9.2 79.95-7.93 80.5-6.77 81.05-5.62 81.87-4.72 82.69-3.83 83.78-3.3 84.88-2.76 86.3-2.76L86.3-2.76Q87.76-2.76 88.89-3.28 90.01-3.81 90.83-4.69 91.65-5.57 92.18-6.71 92.72-7.86 93.05-9.13 93.38-10.4 93.51-11.69 93.65-12.99 93.65-14.16ZM137.22-14.16L137.22-14.16Q137.22-11.08 136.3-8.4 135.37-5.71 133.61-3.72 131.85-1.73 129.31-0.59 126.77 0.56 123.55 0.56L123.55 0.56Q121.09 0.56 119.02-0.4 116.96-1.37 115.5-3.37L115.5-3.37 115.5 13.01 107.24 13.01 107.24-28.2 110.42-28.2 114.08-22.07Q114.62-23.61 115.56-24.87 116.5-26.12 117.73-27.01 118.96-27.91 120.44-28.39 121.92-28.88 123.55-28.88L123.55-28.88Q126.77-28.88 129.31-27.73 131.85-26.59 133.61-24.6 135.37-22.61 136.3-19.92 137.22-17.24 137.22-14.16ZM128.85-14.16L128.85-14.16Q128.85-15.23 128.74-16.44 128.63-17.65 128.36-18.85 128.09-20.04 127.62-21.14 127.14-22.24 126.41-23.08 125.68-23.93 124.64-24.43 123.6-24.93 122.23-24.93L122.23-24.93Q120.82-24.93 119.78-24.44 118.74-23.95 118-23.11 117.25-22.27 116.78-21.18 116.3-20.09 116.03-18.9 115.76-17.7 115.65-16.48 115.54-15.26 115.54-14.16L115.54-14.16Q115.54-13.18 115.69-12 115.84-10.82 116.15-9.62 116.47-8.42 116.98-7.3 117.5-6.18 118.24-5.3 118.99-4.42 119.98-3.89 120.96-3.37 122.23-3.37L122.23-3.37Q123.63-3.37 124.65-3.87 125.68-4.37 126.41-5.21 127.14-6.05 127.62-7.15 128.09-8.25 128.36-9.45 128.63-10.64 128.74-11.87 128.85-13.09 128.85-14.16ZM183.02-39.79L183.02-39.79 178.36-32.08Q178.28-33.01 178.01-34.22 177.75-35.42 177.12-36.5 176.5-37.57 175.41-38.32 174.33-39.06 172.64-39.06L172.64-39.06Q170.91-39.06 169.86-38.38 168.81-37.7 168.25-36.33 167.69-34.96 167.49-32.93 167.3-30.91 167.3-28.22L167.3-28.22 175.84-28.22 175.84-24.95 167.3-24.95 167.3 0 159.02 0 159.02-24.95 153.89-24.95 153.89-28.22 159.02-28.22Q159.02-32.1 159.85-34.89 160.68-37.67 162.37-39.47 164.05-41.26 166.6-42.1 169.15-42.94 172.57-42.94L172.57-42.94Q174.62-42.94 176.24-42.66 177.87-42.38 179.13-41.93 180.38-41.48 181.34-40.92 182.29-40.36 183.02-39.79ZM208.48-14.16L208.48-14.16Q208.48-11.96 207.9-10.03 207.31-8.11 206.27-6.47 205.23-4.83 203.77-3.53 202.3-2.22 200.56-1.32 198.81-0.42 196.82 0.07 194.83 0.56 192.73 0.56L192.73 0.56Q190.63 0.56 188.66 0.07 186.68-0.42 184.93-1.32 183.19-2.22 181.72-3.53 180.26-4.83 179.22-6.47 178.18-8.11 177.6-10.05 177.01-11.99 177.01-14.16L177.01-14.16Q177.01-16.33 177.6-18.27 178.18-20.21 179.22-21.85 180.26-23.49 181.72-24.79 183.19-26.1 184.93-27 186.68-27.91 188.66-28.39 190.63-28.88 192.73-28.88L192.73-28.88Q194.83-28.88 196.82-28.39 198.81-27.91 200.56-27 202.3-26.1 203.77-24.79 205.23-23.49 206.27-21.85 207.31-20.21 207.9-18.27 208.48-16.33 208.48-14.16ZM200.08-14.16L200.08-14.16Q200.08-15.33 199.95-16.64 199.81-17.94 199.5-19.2 199.18-20.46 198.63-21.62 198.08-22.78 197.28-23.65 196.47-24.51 195.35-25.04 194.22-25.56 192.73-25.56L192.73-25.56Q191.32-25.56 190.22-25.02 189.12-24.49 188.3-23.6 187.49-22.71 186.94-21.53 186.39-20.36 186.04-19.1 185.7-17.85 185.56-16.56 185.41-15.28 185.41-14.16L185.41-14.16Q185.41-13.04 185.56-11.76 185.7-10.47 186.04-9.2 186.39-7.93 186.94-6.77 187.49-5.62 188.3-4.72 189.12-3.83 190.22-3.3 191.32-2.76 192.73-2.76L192.73-2.76Q194.2-2.76 195.32-3.28 196.44-3.81 197.26-4.69 198.08-5.57 198.62-6.71 199.15-7.86 199.48-9.13 199.81-10.4 199.95-11.69 200.08-12.99 200.08-14.16ZM237.65-25.71L237.65-25.71 233.01-18.02Q232.72-18.99 232.26-20.21 231.79-21.44 231.11-22.5 230.43-23.56 229.47-24.28 228.52-25 227.28-25L227.28-25Q226.13-25 225.29-24.41 224.45-23.83 223.86-22.89 223.27-21.95 222.9-20.76 222.52-19.58 222.31-18.37 222.1-17.16 222.03-16.05 221.96-14.94 221.96-14.14L221.96-14.14 221.96 0 213.68 0 213.68-28.2 216.85-28.2 220.2-21.63Q220.88-23.22 221.76-24.55 222.64-25.88 223.79-26.84 224.93-27.81 226.39-28.34 227.84-28.88 229.67-28.88L229.67-28.88Q230.62-28.88 231.79-28.72 232.97-28.56 234.09-28.19 235.21-27.81 236.16-27.2 237.12-26.59 237.65-25.71ZM298.88-16.46L298.88-16.46Q298.88-13.55 298.2-10.4 297.51-7.25 296.28-4.26 295.05-1.27 293.31 1.39 291.58 4.05 289.46 6.01L289.46 6.01 286.35 4.32Q287.06 3.05 287.65 1.46 288.23-0.12 288.72-1.88 289.21-3.64 289.58-5.49 289.94-7.35 290.2-9.19 290.46-11.04 290.58-12.77 290.7-14.5 290.7-16.02L290.7-16.02Q290.7-16.87 290.65-17.87 290.6-18.87 290.44-19.87 290.29-20.87 289.97-21.79 289.65-22.71 289.1-23.43 288.55-24.15 287.73-24.57 286.92-25 285.77-25L285.77-25Q284.65-25 283.85-24.4 283.06-23.8 282.5-22.85 281.94-21.9 281.61-20.7 281.28-19.51 281.11-18.3 280.93-17.09 280.87-15.99 280.81-14.89 280.81-14.14L280.81-14.14 280.81 0 272.58 0 272.58-13.13Q272.58-13.99 272.61-15.2 272.63-16.41 272.55-17.72 272.46-19.04 272.23-20.35 272-21.66 271.5-22.68 271-23.71 270.14-24.35 269.29-25 268-25L268-25Q266.9-25 266.15-24.39 265.41-23.78 264.91-22.81 264.41-21.85 264.13-20.64 263.84-19.43 263.71-18.23 263.58-17.02 263.55-15.93 263.53-14.84 263.53-14.14L263.53-14.14 263.53 0 255.25 0 255.25-28.2 258.42-28.2 261.45-21.63Q262.48-25.05 264.69-26.97 266.9-28.88 270.56-28.88L270.56-28.88Q273.85-28.88 276.03-27.51 278.2-26.15 279.45-23.07L279.45-23.07Q280.15-24.41 281.02-25.49 281.89-26.56 282.95-27.32 284.01-28.08 285.3-28.48 286.6-28.88 288.16-28.88L288.16-28.88Q291.04-28.88 293.08-27.94 295.12-27 296.41-25.34 297.71-23.68 298.29-21.4 298.88-19.12 298.88-16.46ZM311.16-13.38L311.16-13.38Q312.67-13.04 314.18-12.84 315.7-12.65 317.24-12.65L317.24-12.65Q318.85-12.65 320.23-12.95 321.61-13.26 322.62-13.98 323.63-14.7 324.22-15.89 324.8-17.09 324.8-18.87L324.8-18.87Q324.8-20.31 324.41-21.51 324.02-22.71 323.25-23.56 322.48-24.41 321.36-24.89 320.24-25.37 318.75-25.37L318.75-25.37Q317.36-25.37 316.25-24.85 315.14-24.34 314.29-23.47 313.45-22.61 312.85-21.46 312.26-20.31 311.86-19.07 311.47-17.82 311.3-16.55 311.13-15.28 311.13-14.16L311.13-14.16Q311.13-13.96 311.13-13.77 311.13-13.57 311.16-13.38ZM331.49-18.95L331.49-18.95Q331.49-17.21 330.93-15.86 330.37-14.5 329.41-13.48 328.44-12.45 327.17-11.74 325.9-11.04 324.46-10.58 323.02-10.13 321.5-9.94 319.97-9.74 318.53-9.74L318.53-9.74Q316.7-9.74 314.92-10 313.13-10.25 311.4-10.82L311.4-10.82Q311.67-9.2 312.26-7.75 312.84-6.3 313.82-5.21 314.79-4.13 316.22-3.49 317.65-2.86 319.6-2.86L319.6-2.86Q320.9-2.86 322.07-3.25 323.24-3.64 324.22-4.35 325.19-5.05 325.94-6.03 326.68-7.01 327.15-8.2L327.15-8.2 330.71-6.88Q329.91-4.96 328.5-3.55 327.1-2.15 325.33-1.23 323.56-0.32 321.57 0.12 319.58 0.56 317.63 0.56L317.63 0.56Q314.4 0.56 311.67-0.52 308.93-1.61 306.96-3.56 304.98-5.52 303.86-8.23 302.73-10.94 302.73-14.16L302.73-14.16Q302.73-17.38 303.86-20.09 304.98-22.8 306.96-24.76 308.93-26.71 311.67-27.8 314.4-28.88 317.63-28.88L317.63-28.88Q319.19-28.88 320.82-28.66 322.46-28.44 324-27.97 325.54-27.49 326.9-26.73 328.27-25.98 329.28-24.87 330.3-23.75 330.9-22.29 331.49-20.83 331.49-18.95Z" opacity="1" transform="matrix(1,0,0,1,0,0)" fill="#000000" class="wordmark-text-0" data-fill-palette-color="primary" id="text-0"></path></svg></g></svg></g></svg></g></svg></g><g transform="matrix(1,0,0,1,433.27535462833197,0)"><svg viewBox="0 0 105.97041092167959 92.78825380536216" height="92.78825380536216" width="105.97041092167959"><g><svg xmlns="http://www.w3.org/2000/svg" xml:space="preserve" viewBox="7.279999999999999 10.020000000000001 85.43803893195712 74.81" x="0" y="0" height="92.78825380536216" width="105.97041092167959" class="icon-icon-0" data-fill-palette-color="accent" id="icon-0"><path d="M57.33 82.53v0.64h14v-0.64z m35.09-50.37L78.79 10.71c-0.13-0.41-0.521-0.69-0.96-0.69H22.17c-0.44 0-0.8 0.28-0.93 0.71L7.72 32.1c-0.2 0.13-0.44 1.88-0.44 1.88 0 8.37 8.78 3.9 12.25 3.9 0.6 0 0.73 0.95 0.73 4.39l0.01-7.31 0.06 25.89c0.28 10 1.19 3 4.17 2.99-0.62-1.33 0.01-15.78-0.07-17.31h-0.03v-9.27c0.83 1.45 2.68 2.64 4.7 2.64h11.65c1.75 0 3.26-2.07 4.01-3.25 0.75 1.18 1.89 2.29 3.27 2.85 0.62 0.26 1.28 0.4 1.98 0.4s1.36-0.14 1.98-0.4c1.39-0.56 2.539-1.66 3.27-2.85 0.75 1.18 1.615 3.25 3.865 3.25 0.672 0 10.945-0.05 11.375-0.02h0.01c0.131 0.02 0.25 0.02 0.381 0.02 2.021 0 3.909-1.19 4.729-2.64v9.271h-0.149c-0.08 1.489 1.561 2.92 0.979 4.22 2.64-0.01 2.46 9.99 3.05 9.99h0.109l0.131-18.47c0-2.94 1.148-4.37 1.74-4.37 3.459 0 11.238 4.45 11.238-3.92 0.003-0.001-0.168-1.711-0.298-1.821m-79.62 0.72l11.24-19.21h4.73l-7.83 19.21z m28.14 0H25.8l7.24-19.21h9.73z m4.86 0l1.24-19.21h5.729l1.17 19.21z m13 0l-1.76-19.21h9.729l7.17 19.21z m20 0l-7.76-19.21h4.729l11.17 19.21zM57.33 83.17h14v-0.64h-14z" fill="#007f73" data-fill-palette-color="accent"></path><path d="M50.01 39.9c-0.7 0-1.36-0.14-1.98-0.4h3.96c-0.62 0.26-1.28 0.4-1.98 0.4" fill="#007f73" data-fill-palette-color="accent"></path><path d="M79.5 46.5v26.33c0 6.63-5.37 12-12 12H32.17c-6.63 0-12-4.331-12-12V36.5c0 9.48 0.03 8.96 0.1 8.46 0.39-3.04 0.91 19.28 3.13 17.39l1-15.819 0.03 10c0.08 1.528 0.45 12.979 1.07 14.31 1.89 4.13 6.06 6.99 10.9 6.99h27.1a12 12 0 0 0 10.95-7.08c0.579-1.3 0.938-2.73 1.021-4.22l0.149-20v-3.87C78.01 44.86 79.5 43 79.5 46.5" fill="#007f73" data-fill-palette-color="accent"></path><path d="M57.125 77.232a5.938 5.938 0 1 1-11.876 0v-10.13a5.938 5.938 0 1 1 11.876 0zM71.75 46.625a2.124 2.124 0 0 1-2.125 2.125h-39.25a2.124 2.124 0 1 1 0-4.25h39.25c1.174 0 2.125 0.951 2.125 2.125M71.75 53.625a2.124 2.124 0 0 1-2.125 2.125h-39.25a2.124 2.124 0 1 1 0-4.25h39.25c1.174 0 2.125 0.951 2.125 2.125" fill="#007f73" data-fill-palette-color="accent"></path></svg></g></svg></g></svg></g><defs></defs></svg><rect width="395.52" height="68.05729871177483" fill="none" stroke="none" visibility="hidden"></rect></g></svg></g></svg>